<svg height="49" overflow="visible" viewBox="0 0 221.00001957814527 49" width="221.00001957814527" xmlns="http://www.w3.org/2000/svg"><g><defs><path id="path-172474731339188" d="M15.56206770201347 5.558767384783202 C15.56206770201347 5.558767384783202 3.584072099179473 5.558767384783202 3.584072099179473 5.558767384783202 C3.584072099179473 5.558767384783202 3.584072099179473 30.96073084265068 3.584072099179473 30.96073084265068 C3.584072099179473 30.96073084265068 6.875023060136091 30.96073084265068 6.875023060136091 30.96073084265068 C6.875023060136091 30.96073084265068 6.875023060136091 20.163894191437144 6.875023060136091 20.163894191437144 C6.875023060136091 20.163894191437144 11.95134822663192 20.163894191437144 11.95134822663192 20.163894191437144 C11.95134822663192 20.163894191437144 12.657503695986978 17.625034087810203 12.657503695986978 17.625034087810203 C12.657503695986978 17.625034087810203 6.875023060136091 17.625034087810203 6.875023060136091 17.625034087810203 C6.875023060136091 17.625034087810203 6.875023060136091 8.244614125988551 6.875023060136091 8.244614125988551 C6.875023060136091 8.244614125988551 14.842588544557367 8.244614125988551 14.842588544557367 8.244614125988551 C14.842588544557367 8.244614125988551 15.548744013912428 5.572129806381241 15.548744013912428 5.572129806381241 C15.548744013912428 5.572129806381241 15.56206770201347 5.558767384783202 15.56206770201347 5.558767384783202 Z" vector-effect="non-scaling-stroke"/></defs> <path style="stroke-width: 0; stroke-linecap: butt; stroke-linejoin: miter; fill: rgb(255, 255, 255);" d="M11.977995602834 2.7259340059994415 C11.977995602834 2.7259340059994415 0 2.7259340059994415 0 2.7259340059994415 C0 2.7259340059994415 0 28.127897463866915 0 28.127897463866915 C0 28.127897463866915 3.2909509609566214 28.127897463866915 3.2909509609566214 28.127897463866915 C3.2909509609566214 28.127897463866915 3.2909509609566214 17.331060812653384 3.2909509609566214 17.331060812653384 C3.2909509609566214 17.331060812653384 8.367276127452449 17.331060812653384 8.367276127452449 17.331060812653384 C8.367276127452449 17.331060812653384 9.07343159680751 14.792200709026442 9.07343159680751 14.792200709026442 C9.07343159680751 14.792200709026442 3.2909509609566214 14.792200709026442 3.2909509609566214 14.792200709026442 C3.2909509609566214 14.792200709026442 3.2909509609566214 5.411780747204791 3.2909509609566214 5.411780747204791 C3.2909509609566214 5.411780747204791 11.258516445377893 5.411780747204791 11.258516445377893 5.411780747204791 C11.258516445377893 5.411780747204791 11.964671914732953 2.7392964275974805 11.964671914732953 2.7392964275974805 C11.964671914732953 2.7392964275974805 11.977995602834 2.7259340059994415 11.977995602834 2.7259340059994415 Z" vector-effect="non-scaling-stroke"/></g><g><defs><path id="path-172474731339086" d="M19.199434553597083 5.425143168802841 C19.199434553597083 5.425143168802841 18.43998433183787 8.231251704390527 18.43998433183787 8.231251704390527 C18.43998433183787 8.231251704390527 24.27575972009293 8.231251704390527 24.27575972009293 8.231251704390527 C24.27575972009293 8.231251704390527 22.623622395564094 12.694300518134733 22.623622395564094 12.694300518134733 C22.623622395564094 12.694300518134733 24.27575972009293 17.691846195800395 24.27575972009293 17.691846195800395 C24.27575972009293 17.691846195800395 16.268223171368533 17.691846195800395 16.268223171368533 17.691846195800395 C16.268223171368533 17.691846195800395 15.50877294960931 20.15053176983914 15.50877294960931 20.15053176983914 C15.50877294960931 20.15053176983914 27.833184443070312 20.15053176983914 27.833184443070312 20.15053176983914 C27.833184443070312 20.15053176983914 25.24838895146876 12.694300518134733 25.24838895146876 12.694300518134733 C25.24838895146876 12.694300518134733 27.73991862636304 5.55876738478321 27.73991862636304 5.55876738478321 C27.73991862636304 5.55876738478321 19.199434553597083 5.425143168802841 19.199434553597083 5.425143168802841 Z" vector-effect="non-scaling-stroke"/></defs> <path style="stroke-width: 0; stroke-linecap: butt; stroke-linejoin: miter; fill: rgb(255, 255, 255);" d="M15.615362454417621 2.592309790019087 C15.615362454417621 2.592309790019087 14.855912232658405 5.398418325606773 14.855912232658405 5.398418325606773 C14.855912232658405 5.398418325606773 20.691687620913463 5.398418325606773 20.691687620913463 5.398418325606773 C20.691687620913463 5.398418325606773 19.039550296384633 9.861467139350978 19.039550296384633 9.861467139350978 C19.039550296384633 9.861467139350978 20.691687620913463 14.859012817016641 20.691687620913463 14.859012817016641 C20.691687620913463 14.859012817016641 12.684151072189067 14.859012817016641 12.684151072189067 14.859012817016641 C12.684151072189067 14.859012817016641 11.924700850429844 17.317698391055387 11.924700850429844 17.317698391055387 C11.924700850429844 17.317698391055387 24.249112343890843 17.317698391055387 24.249112343890843 17.317698391055387 C24.249112343890843 17.317698391055387 21.66431685228929 9.861467139350978 21.66431685228929 9.861467139350978 C21.66431685228929 9.861467139350978 24.15584652718357 2.7259340059994557 24.15584652718357 2.7259340059994557 C24.15584652718357 2.7259340059994557 15.615362454417621 2.592309790019087 15.615362454417621 2.592309790019087 Z" vector-effect="non-scaling-stroke"/></g><g><defs><path id="path-172474731339084" d="M41.729791132453784 2.8328333787837487 C41.729791132453784 2.8328333787837487 33.62898876702215 35.423779656394906 33.62898876702215 35.423779656394906 C33.62898876702215 35.423779656394906 37.1064713613933 35.423779656394906 37.1064713613933 35.423779656394906 C37.1064713613933 35.423779656394906 45.07403684581454 2.8862830651758946 45.07403684581454 2.8862830651758946 C45.07403684581454 2.8862830651758946 41.729791132453784 2.846195800381786 41.729791132453784 2.846195800381786 C41.729791132453784 2.846195800381786 41.729791132453784 2.8328333787837487 41.729791132453784 2.8328333787837487 Z" vector-effect="non-scaling-stroke"/></defs> <path style="stroke-width: 0; stroke-linecap: butt; stroke-linejoin: miter; fill: rgb(255, 255, 255);" d="M38.14571903327443 0 C38.14571903327443 0 30.0449166678428 32.59094627761116 30.0449166678428 32.59094627761116 C30.0449166678428 32.59094627761116 33.52239926221395 32.59094627761116 33.52239926221395 32.59094627761116 C33.52239926221395 32.59094627761116 41.489964746635195 0.053449686392145423 41.489964746635195 0.053449686392145423 C41.489964746635195 0.053449686392145423 38.14571903327443 0.013362421598037244 38.14571903327443 0.013362421598037244 C38.14571903327443 0.013362421598037244 38.14571903327443 0 38.14571903327443 0 Z" vector-effect="non-scaling-stroke"/></g><g><defs><path id="path-172474731338380" d="M13.66999,20.43522c-1.44804,1.7018 -3.4806,2.76372 -5.75229,2.76372c-4.37068,0 -7.9177,-3.94818 -7.9177,-8.82213c0,-4.87396 3.54702,-8.82213 7.9177,-8.82213c2.28497,0 4.35739,1.08915 5.79214,2.81818v-8.37286h3.44074v22.89943h-3.45403l-0.03985,-2.46421zM8.64836,8.57707c-2.81636,0 -5.10134,2.64119 -5.10134,5.89504c0,3.25384 2.28497,5.89504 5.10134,5.89504c2.81636,0 5.10134,-2.64119 5.10134,-5.89504c0,-3.25384 -2.28497,-5.89504 -5.10134,-5.89504z" vector-effect="non-scaling-stroke"/></defs><path style="stroke-width: 0; stroke-linecap: butt; stroke-linejoin: miter; fill: rgb(255, 255, 255);" d="M13.66999,20.43522c-1.44804,1.7018 -3.4806,2.76372 -5.75229,2.76372c-4.37068,0 -7.9177,-3.94818 -7.9177,-8.82213c0,-4.87396 3.54702,-8.82213 7.9177,-8.82213c2.28497,0 4.35739,1.08915 5.79214,2.81818v-8.37286h3.44074v22.89943h-3.45403l-0.03985,-2.46421zM8.64836,8.57707c-2.81636,0 -5.10134,2.64119 -5.10134,5.89504c0,3.25384 2.28497,5.89504 5.10134,5.89504c2.81636,0 5.10134,-2.64119 5.10134,-5.89504c0,-3.25384 -2.28497,-5.89504 -5.10134,-5.89504z" transform="translate(55.000009425286535, 2) rotate(0)" vector-effect="non-scaling-stroke"/></g><g><defs><path id="path-172474731338278" d="M13.6567,20.43522c-1.43475,1.7018 -3.4806,2.76372 -5.739,2.76372c-4.37068,0 -7.9177,-3.94818 -7.9177,-8.82213c0,-4.87396 3.54702,-8.82213 7.9177,-8.82213c2.28497,0 4.35739,1.08915 5.79214,2.81818v-8.37286h3.44074v22.89943h-3.45403zM8.63507,8.57707c-2.81636,0 -5.11462,2.64119 -5.11462,5.89504c0,3.25384 2.28497,5.89504 5.11462,5.89504c2.82965,0 5.10134,-2.64119 5.10134,-5.89504c0,-3.25384 -2.28497,-5.89504 -5.10134,-5.89504z" vector-effect="non-scaling-stroke"/></defs><path style="stroke-width: 0; stroke-linecap: butt; stroke-linejoin: miter; fill: rgb(255, 255, 255);" d="M13.6567,20.43522c-1.43475,1.7018 -3.4806,2.76372 -5.739,2.76372c-4.37068,0 -7.9177,-3.94818 -7.9177,-8.82213c0,-4.87396 3.54702,-8.82213 7.9177,-8.82213c2.28497,0 4.35739,1.08915 5.79214,2.81818v-8.37286h3.44074v22.89943h-3.45403zM8.63507,8.57707c-2.81636,0 -5.11462,2.64119 -5.11462,5.89504c0,3.25384 2.28497,5.89504 5.11462,5.89504c2.82965,0 5.10134,-2.64119 5.10134,-5.89504c0,-3.25384 -2.28497,-5.89504 -5.10134,-5.89504z" transform="translate(201.84940931435236, 2) rotate(0)" vector-effect="non-scaling-stroke"/></g><g><defs><path id="path-172474731338276" d="M16.08866,12.33465c-1.3019,3.09047 -4.25111,5.25516 -7.69186,5.25516c-4.63637,0 -8.46237,-3.93456 -8.39595,-8.79491c0.06642,-5.74528 3.75958,-8.79491 8.39595,-8.79491c3.0422,0 5.68586,1.42951 7.17375,4.22047c0,0 1.2222,2.13746 0.73066,5.74528l-12.66035,0.06807c0,0 0.1727,4.6289 4.70279,4.57444c3.06877,-0.04084 3.90571,-2.28722 3.90571,-2.28722h3.826zM3.58773,7.22925h9.3126c0,0 -0.23913,-4.35661 -4.80907,-4.35661c-1.46132,0 -3.90571,0.85771 -4.49024,4.35661v0z" vector-effect="non-scaling-stroke"/></defs><path style="stroke-width: 0; stroke-linecap: butt; stroke-linejoin: miter; fill: rgb(255, 255, 255);" d="M16.08866,12.33465c-1.3019,3.09047 -4.25111,5.25516 -7.69186,5.25516c-4.63637,0 -8.46237,-3.93456 -8.39595,-8.79491c0.06642,-5.74528 3.75958,-8.79491 8.39595,-8.79491c3.0422,0 5.68586,1.42951 7.17375,4.22047c0,0 1.2222,2.13746 0.73066,5.74528l-12.66035,0.06807c0,0 0.1727,4.6289 4.70279,4.57444c3.06877,-0.04084 3.90571,-2.28722 3.90571,-2.28722h3.826zM3.58773,7.22925h9.3126c0,0 -0.23913,-4.35661 -4.80907,-4.35661c-1.46132,0 -3.90571,0.85771 -4.49024,4.35661v0z" transform="translate(78.89838573886107, 7.636363339322081) rotate(0)" vector-effect="non-scaling-stroke"/></g><g><defs><path id="path-172474731338174" d="M3.24147,2.72288c1.43475,-1.71541 3.56031,-2.72288 5.81871,-2.72288c4.35739,0 7.87784,3.94818 7.87784,8.80852c0,4.86034 -3.52045,8.80852 -7.87784,8.80852c-2.24512,0 -4.2644,-1.04831 -5.69915,-2.7365c-0.02657,-0.02723 -0.05314,-0.06807 -0.07971,-0.0953v10.61924h-3.28133v-25.07773h3.24147v2.39614zM8.36938,3.04963c-2.84293,0 -5.15448,2.58674 -5.15448,5.77251c0,3.18577 2.31154,5.77251 5.15448,5.77251c2.84293,0 5.15448,-2.58674 5.15448,-5.77251c0,-3.18577 -2.31154,-5.77251 -5.15448,-5.77251z" vector-effect="non-scaling-stroke"/></defs><path style="stroke-width: 0; stroke-linecap: butt; stroke-linejoin: miter; fill: rgb(255, 255, 255);" d="M3.24147,2.72288c1.43475,-1.71541 3.56031,-2.72288 5.81871,-2.72288c4.35739,0 7.87784,3.94818 7.87784,8.80852c0,4.86034 -3.52045,8.80852 -7.87784,8.80852c-2.24512,0 -4.2644,-1.04831 -5.69915,-2.7365c-0.02657,-0.02723 -0.05314,-0.06807 -0.07971,-0.0953v10.61924h-3.28133v-25.07773h3.24147v2.39614zM8.36938,3.04963c-2.84293,0 -5.15448,2.58674 -5.15448,5.77251c0,3.18577 2.31154,5.77251 5.15448,5.77251c2.84293,0 5.15448,-2.58674 5.15448,-5.77251c0,-3.18577 -2.31154,-5.77251 -5.15448,-5.77251z" transform="translate(102.25379225552055, 7.5955201267182915) rotate(0)" vector-effect="non-scaling-stroke"/></g><g><defs><path id="path-172474731338172" d="M129.12757073654066 5.2687744258880445 C129.12757073654066 5.2687744258880445 132.60816986544742 5.2687744258880445 132.60816986544742 5.2687744258880445 C132.60816986544742 5.2687744258880445 132.60816986544742 28.16820229240923 132.60816986544742 28.16820229240923 C132.60816986544742 28.16820229240923 129.12757073654066 28.16820229240923 129.12757073654066 28.16820229240923 C129.12757073654066 28.16820229240923 129.12757073654066 5.2687744258880445 129.12757073654066 5.2687744258880445 Z" vector-effect="non-scaling-stroke"/></defs> <path style="stroke-width: 0; stroke-linecap: butt; stroke-linejoin: miter; fill: rgb(255, 255, 255);" d="M126.03345805988349 2 C126.03345805988349 2 129.51405718879025 2 129.51405718879025 2 C129.51405718879025 2 129.51405718879025 24.899427866521187 129.51405718879025 24.899427866521187 C129.51405718879025 24.899427866521187 126.03345805988349 24.899427866521187 126.03345805988349 24.899427866521187 C126.03345805988349 24.899427866521187 126.03345805988349 2 126.03345805988349 2 Z" vector-effect="non-scaling-stroke"/></g><g><defs><path id="path-172474731338070" d="M17.11073,8.79491c0,4.84673 -3.826,8.79491 -8.55537,8.79491c-4.72936,0 -8.55537,-3.93456 -8.55537,-8.79491c0,-4.86034 3.826,-8.79491 8.55537,-8.79491c4.72936,0 8.55537,3.93456 8.55537,8.79491zM8.55537,3.00878c-2.81636,0 -5.11462,2.60035 -5.11462,5.81335c0,3.213 2.29826,5.81335 5.11462,5.81335c2.81636,0 5.11462,-2.60035 5.11462,-5.81335c0,-3.213 -2.28497,-5.81335 -5.11462,-5.81335z" vector-effect="non-scaling-stroke"/></defs><path style="stroke-width: 0; stroke-linecap: butt; stroke-linejoin: miter; fill: rgb(255, 255, 255);" d="M17.11073,8.79491c0,4.84673 -3.826,8.79491 -8.55537,8.79491c-4.72936,0 -8.55537,-3.93456 -8.55537,-8.79491c0,-4.86034 3.826,-8.79491 8.55537,-8.79491c4.72936,0 8.55537,3.93456 8.55537,8.79491zM8.55537,3.00878c-2.81636,0 -5.11462,2.60035 -5.11462,5.81335c0,3.213 2.29826,5.81335 5.11462,5.81335c2.81636,0 5.11462,-2.60035 5.11462,-5.81335c0,-3.213 -2.28497,-5.81335 -5.11462,-5.81335z" transform="translate(136.16970666811193, 7.663592147724614) rotate(0)" vector-effect="non-scaling-stroke"/></g><g><defs><path id="path-172474731338068" d="M161.1969077486816 11.191040253436624 C161.1969077486816 11.191040253436624 164.99634038557983 11.082125019826533 164.99634038557983 11.082125019826533 C164.99634038557983 11.082125019826533 169.69913462845383 23.94773699001826 169.69913462845383 23.94773699001826 C169.69913462845383 23.94773699001826 174.58791508432293 11.150197040832834 174.58791508432293 11.150197040832834 C174.58791508432293 11.150197040832834 178.04194475423037 11.19104025343662 178.04194475423037 11.19104025343662 C178.04194475423037 11.19104025343662 167.82598776900414 36.24154398375703 167.82598776900414 36.24154398375703 C167.82598776900414 36.24154398375703 164.4118122875956 36.24154398375703 164.4118122875956 36.24154398375703 C164.4118122875956 36.24154398375703 167.71970993300692 28.0592870587991 167.71970993300692 28.0592870587991 C167.71970993300692 28.0592870587991 167.67985574450782 27.596397315956224 167.67985574450782 27.596397315956224 C167.67985574450782 27.596397315956224 161.1969077486816 11.191040253436624 161.1969077486816 11.191040253436624 Z" vector-effect="non-scaling-stroke"/></defs> <path style="stroke-width: 0; stroke-linecap: butt; stroke-linejoin: miter; fill: rgb(255, 255, 255);" d="M158.10279507202435 7.922265827548593 C158.10279507202435 7.922265827548593 161.90222770892257 7.813350593938502 161.90222770892257 7.813350593938502 C161.90222770892257 7.813350593938502 166.60502195179657 20.67896256413023 166.60502195179657 20.67896256413023 C166.60502195179657 20.67896256413023 171.49380240766567 7.881422614944803 171.49380240766567 7.881422614944803 C171.49380240766567 7.881422614944803 174.9478320775731 7.922265827548589 174.9478320775731 7.922265827548589 C174.9478320775731 7.922265827548589 164.73187509234688 32.972769557869 164.73187509234688 32.972769557869 C164.73187509234688 32.972769557869 161.31769961093835 32.972769557869 161.31769961093835 32.972769557869 C161.31769961093835 32.972769557869 164.62559725634966 24.790512632911067 164.62559725634966 24.790512632911067 C164.62559725634966 24.790512632911067 164.58574306785056 24.32762289006819 164.58574306785056 24.32762289006819 C164.58574306785056 24.32762289006819 158.10279507202435 7.922265827548593 158.10279507202435 7.922265827548593 Z" vector-effect="non-scaling-stroke"/></g><g><defs><path id="path-172474731337966" d="M15.90182,12.36188c-1.28862,3.07686 -4.21126,5.21432 -7.59887,5.21432c-4.58323,0 -8.30296,-3.93456 -8.30296,-8.79491c0,-4.86034 3.71972,-8.78129 8.30296,-8.78129c4.58323,0 8.32953,3.43083 8.17011,8.78129c0,0.46289 -0.02657,0.91217 -0.09299,1.36144l-12.62049,-0.02723c0,2.46421 2.07242,4.45191 4.63637,4.45191c1.72701,0 3.22819,-0.89855 4.02527,-2.24638l3.46731,0.02723zM12.89947,7.21563c0,-2.31445 -2.05913,-4.19324 -4.59652,-4.19324c-2.53738,0 -4.58323,1.87879 -4.58323,4.19324z" vector-effect="non-scaling-stroke"/></defs><path style="stroke-width: 0; stroke-linecap: butt; stroke-linejoin: miter; fill: rgb(255, 255, 255);" d="M15.90182,12.36188c-1.28862,3.07686 -4.21126,5.21432 -7.59887,5.21432c-4.58323,0 -8.30296,-3.93456 -8.30296,-8.79491c0,-4.86034 3.71972,-8.78129 8.30296,-8.78129c4.58323,0 8.32953,3.43083 8.17011,8.78129c0,0.46289 -0.02657,0.91217 -0.09299,1.36144l-12.62049,-0.02723c0,2.46421 2.07242,4.45191 4.63637,4.45191c1.72701,0 3.22819,-0.89855 4.02527,-2.24638l3.46731,0.02723zM12.89947,7.21563c0,-2.31445 -2.05913,-4.19324 -4.59652,-4.19324c-2.53738,0 -4.58323,1.87879 -4.58323,4.19324z" transform="translate(179.82332780394242, 7.568291318315801) rotate(0)" vector-effect="non-scaling-stroke"/></g><g><defs><path id="path-172474731337964" d="M128.24317591874095 48.633561643835705 C127.80247771970751 48.633561643835705 127.5888058656307 48.520547945205564 127.5888058656307 48.29452054794528 C127.5888058656307 48.29452054794528 127.5888058656307 38.964611872146186 127.5888058656307 38.964611872146186 C127.5888058656307 38.964611872146186 124.4371460179973 38.964611872146186 124.4371460179973 38.964611872146186 C124.22347416392046 38.964611872146186 124.10328374600229 38.813926940639334 124.10328374600229 38.50000000000004 C124.10328374600229 38.50000000000004 124.10328374600229 38.24885844748865 124.10328374600229 38.24885844748865 C124.10328374600229 37.934931506849374 124.21011967304071 37.78424657534252 124.4371460179973 37.78424657534252 C124.4371460179973 37.78424657534252 132.1426872556432 37.78424657534252 132.1426872556432 37.78424657534252 C132.35635910972002 37.78424657534252 132.47654952763824 37.934931506849374 132.47654952763824 38.24885844748865 C132.47654952763824 38.24885844748865 132.47654952763824 38.50000000000004 132.47654952763824 38.50000000000004 C132.47654952763824 38.813926940639334 132.3697136005999 38.964611872146186 132.1426872556432 38.964611872146186 C132.1426872556432 38.964611872146186 129.0444453715291 38.964611872146186 129.0444453715291 38.964611872146186 C129.0444453715291 38.964611872146186 129.0444453715291 48.29452054794528 129.0444453715291 48.29452054794528 C129.0444453715291 48.520547945205564 128.83077351745231 48.633561643835705 128.3900753184188 48.633561643835705 C128.3900753184188 48.633561643835705 128.2565304096208 48.633561643835705 128.2565304096208 48.633561643835705 C128.2565304096208 48.633561643835705 128.24317591874095 48.633561643835705 128.24317591874095 48.633561643835705 Z" vector-effect="non-scaling-stroke"/></defs> <path style="stroke-width: 0; stroke-linecap: butt; stroke-linejoin: miter; fill: rgb(255, 255, 255);" d="M124.13989217273866 48.92465753424661 C123.69919397370523 48.92465753424661 123.4855221196284 48.81164383561647 123.4855221196284 48.58561643835619 C123.4855221196284 48.58561643835619 123.4855221196284 39.255707762557094 123.4855221196284 39.255707762557094 C123.4855221196284 39.255707762557094 120.33386227199503 39.255707762557094 120.33386227199503 39.255707762557094 C120.12019041791817 39.255707762557094 120 39.10502283105024 120 38.79109589041095 C120 38.79109589041095 120 38.53995433789956 120 38.53995433789956 C120 38.22602739726028 120.10683592703842 38.07534246575343 120.33386227199503 38.07534246575343 C120.33386227199503 38.07534246575343 128.03940350964092 38.07534246575343 128.03940350964092 38.07534246575343 C128.25307536371773 38.07534246575343 128.37326578163595 38.22602739726028 128.37326578163595 38.53995433789956 C128.37326578163595 38.53995433789956 128.37326578163595 38.79109589041095 128.37326578163595 38.79109589041095 C128.37326578163595 39.10502283105024 128.26642985459762 39.255707762557094 128.03940350964092 39.255707762557094 C128.03940350964092 39.255707762557094 124.9411616255268 39.255707762557094 124.9411616255268 39.255707762557094 C124.9411616255268 39.255707762557094 124.9411616255268 48.58561643835619 124.9411616255268 48.58561643835619 C124.9411616255268 48.81164383561647 124.72748977145002 48.92465753424661 124.28679157241652 48.92465753424661 C124.28679157241652 48.92465753424661 124.15324666361852 48.92465753424661 124.15324666361852 48.92465753424661 C124.15324666361852 48.92465753424661 124.13989217273866 48.92465753424661 124.13989217273866 48.92465753424661 Z" vector-effect="non-scaling-stroke"/></g><g><defs><path id="path-172474731337862" d="M135.5480824299936 48.608447488584545 C135.21422015799857 48.608447488584545 135.05396626744104 48.4577625570777 135.05396626744104 48.143835616438444 C135.05396626744104 48.143835616438444 135.05396626744104 38.26141552511422 135.05396626744104 38.26141552511422 C135.05396626744104 37.94748858447495 135.21422015799857 37.7968036529681 135.5480824299936 37.7968036529681 C135.5480824299936 37.7968036529681 141.2771590174289 37.7968036529681 141.2771590174289 37.7968036529681 C141.4908308715057 37.7968036529681 141.61102128942395 37.94748858447495 141.61102128942395 38.26141552511422 C141.61102128942395 38.26141552511422 141.61102128942395 38.512557077625644 141.61102128942395 38.512557077625644 C141.61102128942395 38.826484018264914 141.50418536238556 38.97716894977176 141.2771590174289 38.97716894977176 C141.2771590174289 38.97716894977176 136.4962512824596 38.97716894977176 136.4962512824596 38.97716894977176 C136.4962512824596 38.97716894977176 136.4962512824596 42.4931506849316 136.4962512824596 42.4931506849316 C136.4962512824596 42.4931506849316 140.78304285487621 42.4931506849316 140.78304285487621 42.4931506849316 C140.99671470895308 42.4931506849316 141.11690512687127 42.643835616438444 141.11690512687127 42.957762557077686 C141.11690512687127 42.957762557077686 141.11690512687127 43.20890410958911 141.11690512687127 43.20890410958911 C141.11690512687127 43.52283105022837 141.01006919983288 43.67351598173523 140.78304285487621 43.67351598173523 C140.78304285487621 43.67351598173523 136.4962512824596 43.67351598173523 136.4962512824596 43.67351598173523 C136.4962512824596 43.67351598173523 136.4962512824596 47.44063926940648 136.4962512824596 47.44063926940648 C136.4962512824596 47.44063926940648 141.29051350830872 47.44063926940648 141.29051350830872 47.44063926940648 C141.50418536238556 47.44063926940648 141.6243757803038 47.59132420091333 141.6243757803038 47.90525114155258 C141.6243757803038 47.90525114155258 141.6243757803038 48.156392694064 141.6243757803038 48.156392694064 C141.6243757803038 48.47031963470327 141.51753985326536 48.621004566210125 141.29051350830872 48.621004566210125 C141.29051350830872 48.621004566210125 135.5480824299936 48.621004566210125 135.5480824299936 48.621004566210125 C135.5480824299936 48.621004566210125 135.5480824299936 48.608447488584545 135.5480824299936 48.608447488584545 Z" vector-effect="non-scaling-stroke"/></defs> <path style="stroke-width: 0; stroke-linecap: butt; stroke-linejoin: miter; fill: rgb(255, 255, 255);" d="M131.44479868399043 48.89954337899543 C131.1109364119954 48.89954337899543 130.95068252143787 48.74885844748859 130.95068252143787 48.43493150684933 C130.95068252143787 48.43493150684933 130.95068252143787 38.5525114155251 130.95068252143787 38.5525114155251 C130.95068252143787 38.23858447488583 131.1109364119954 38.08789954337899 131.44479868399043 38.08789954337899 C131.44479868399043 38.08789954337899 137.17387527142571 38.08789954337899 137.17387527142571 38.08789954337899 C137.38754712550252 38.08789954337899 137.50773754342077 38.23858447488583 137.50773754342077 38.5525114155251 C137.50773754342077 38.5525114155251 137.50773754342077 38.80365296803653 137.50773754342077 38.80365296803653 C137.50773754342077 39.1175799086758 137.40090161638238 39.268264840182646 137.17387527142571 39.268264840182646 C137.17387527142571 39.268264840182646 132.39296753645644 39.268264840182646 132.39296753645644 39.268264840182646 C132.39296753645644 39.268264840182646 132.39296753645644 42.784246575342486 132.39296753645644 42.784246575342486 C132.39296753645644 42.784246575342486 136.67975910887304 42.784246575342486 136.67975910887304 42.784246575342486 C136.8934309629499 42.784246575342486 137.0136213808681 42.93493150684933 137.0136213808681 43.24885844748857 C137.0136213808681 43.24885844748857 137.0136213808681 43.5 137.0136213808681 43.5 C137.0136213808681 43.813926940639256 136.9067854538297 43.964611872146115 136.67975910887304 43.964611872146115 C136.67975910887304 43.964611872146115 132.39296753645644 43.964611872146115 132.39296753645644 43.964611872146115 C132.39296753645644 43.964611872146115 132.39296753645644 47.73173515981737 132.39296753645644 47.73173515981737 C132.39296753645644 47.73173515981737 137.18722976230555 47.73173515981737 137.18722976230555 47.73173515981737 C137.40090161638238 47.73173515981737 137.52109203430064 47.882420091324214 137.52109203430064 48.19634703196347 C137.52109203430064 48.19634703196347 137.52109203430064 48.44748858447489 137.52109203430064 48.44748858447489 C137.52109203430064 48.76141552511416 137.4142561072622 48.91210045662101 137.18722976230555 48.91210045662101 C137.18722976230555 48.91210045662101 131.44479868399043 48.91210045662101 131.44479868399043 48.91210045662101 C131.44479868399043 48.91210045662101 131.44479868399043 48.89954337899543 131.44479868399043 48.89954337899543 Z" vector-effect="non-scaling-stroke"/></g><g><defs><path id="path-172474731337860" d="M149.3032080361901 48.6963470319635 C147.51370625829648 48.6963470319635 146.1782571703164 48.25684931506851 145.31021526312927 47.36529680365298 C144.44217335594206 46.473744292237456 144.0148296477884 45.092465753424676 144.0148296477884 43.208904109589064 C144.0148296477884 39.54223744292239 145.79097693480213 37.708904109589064 149.32991701794984 37.708904109589064 C149.70384276258417 37.708904109589064 150.06441401633882 37.734018264840195 150.41163077921368 37.784246575342486 C150.7588475420885 37.83447488584476 151.07935532320386 37.89726027397262 151.35979963167964 37.985159817351615 C151.64024394015556 38.0730593607306 151.88062477599198 38.16095890410961 152.0675876483092 38.26141552511417 C152.33467746590523 38.41210045662101 152.4682223747032 38.53767123287673 152.4682223747032 38.66324200913243 C152.4682223747032 38.751141552511434 152.42815890206387 38.86415525114157 152.3747409385447 39.00228310502284 C152.30796848414562 39.15296803652969 152.24119602974676 39.278538812785406 152.14771459358803 39.39155251141554 C152.0675876483092 39.50456621004568 151.98746070303042 39.567351598173516 151.90733375775162 39.567351598173516 C151.85391579423234 39.567351598173516 151.72037088543433 39.51712328767125 151.52005352223725 39.39155251141554 C151.3197361590402 39.278538812785406 151.03929185056444 39.16552511415527 150.67872059680974 39.05251141552514 C150.31814934305504 38.93949771689499 149.87745114402156 38.88926940639271 149.35662599970922 38.88926940639271 C148.04788589348863 38.88926940639271 147.07300805926306 39.228310502283115 146.44534698791242 39.91894977168951 C145.81768591656171 40.597031963470336 145.49717813544646 41.70205479452056 145.49717813544646 43.234018264840195 C145.49717813544646 44.765981735159826 145.80433142568188 45.8082191780822 146.43199249703252 46.4988584474886 C147.0462990775036 47.189497716894984 148.0078224208493 47.54109589041098 149.3032080361901 47.54109589041098 C149.8774511440216 47.54109589041098 150.35821281569446 47.47831050228312 150.7454930512088 47.352739726027416 C151.13277328672297 47.22716894977171 151.43992657695856 47.08904109589043 151.68030741279495 46.96347031963471 C151.92068824863134 46.83789954337901 152.06758764830923 46.775114155251146 152.13436010270817 46.775114155251146 C152.21448704798706 46.775114155251146 152.29461399326587 46.82534246575344 152.3747409385447 46.938356164383585 C152.46822237470323 47.051369863013726 152.5349948291023 47.176940639269425 152.60176728350135 47.30251141552513 C152.66853973790026 47.440639269406404 152.69524871965993 47.528538812785406 152.69524871965993 47.59132420091325 C152.69524871965993 47.66666666666667 152.64183075614082 47.742009132420094 152.56170381086193 47.84246575342468 C152.46822237470323 47.930365296803664 152.33467746590523 48.018264840182674 152.17442357534756 48.10616438356166 C151.97410621215056 48.20662100456624 151.73372537631423 48.3070776255708 151.43992657695858 48.39497716894979 C151.1461277776029 48.482876712328775 150.82561999648755 48.5582191780822 150.46504874273285 48.62100456621007 C150.10447748897826 48.68378995433791 149.71719725346392 48.70890410958904 149.3032080361901 48.70890410958904 C149.3032080361901 48.70890410958904 149.3032080361901 48.6963470319635 149.3032080361901 48.6963470319635 Z" vector-effect="non-scaling-stroke"/></defs> <path style="stroke-width: 0; stroke-linecap: butt; stroke-linejoin: miter; fill: rgb(255, 255, 255);" d="M145.19992429018697 48.987442922374434 C143.41042251229334 48.987442922374434 142.07497342431327 48.547945205479444 141.20693151712612 47.65639269406392 C140.33888960993892 46.76484018264839 139.91154590178525 45.38356164383561 139.91154590178525 43.5 C139.91154590178525 39.83333333333333 141.687693188799 38 145.2266332719467 38 C145.60055901658103 38 145.96113027033567 38.02511415525113 146.30834703321054 38.07534246575342 C146.65556379608535 38.1255707762557 146.9760715772007 38.188356164383556 147.2565158856765 38.27625570776255 C147.5369601941524 38.36415525114154 147.77734102998883 38.45205479452055 147.96430390230606 38.5525114155251 C148.2313937199021 38.70319634703195 148.36493862870006 38.82876712328767 148.36493862870006 38.95433789954337 C148.36493862870006 39.04223744292237 148.32487515606073 39.155251141552505 148.27145719254156 39.29337899543378 C148.20468473814248 39.44406392694063 148.13791228374362 39.56963470319634 148.0444308475849 39.68264840182648 C147.96430390230606 39.79566210045662 147.88417695702728 39.85844748858445 147.80405001174847 39.85844748858445 C147.7506320482292 39.85844748858445 147.6170871394312 39.80821917808218 147.4167697762341 39.68264840182648 C147.21645241303705 39.56963470319634 146.9360081045613 39.45662100456621 146.5754368508066 39.343607305936075 C146.2148655970519 39.23059360730593 145.77416739801842 39.18036529680364 145.25334225370608 39.18036529680364 C143.94460214748548 39.18036529680364 142.96972431325992 39.51940639269405 142.34206324190927 40.21004566210045 C141.71440217055857 40.88812785388127 141.39389438944332 41.9931506849315 141.39389438944332 43.52511415525113 C141.39389438944332 45.05707762557076 141.70104767967874 46.099315068493134 142.32870875102938 46.78995433789954 C142.94301533150045 47.48059360730592 143.90453867484615 47.832191780821915 145.19992429018697 47.832191780821915 C145.77416739801845 47.832191780821915 146.25492906969131 47.76940639269406 146.64220930520565 47.64383561643835 C147.02948954071982 47.518264840182646 147.3366428309554 47.380136986301366 147.5770236667918 47.254566210045645 C147.8174045026282 47.128995433789946 147.96430390230609 47.06621004566208 148.03107635670503 47.06621004566208 C148.11120330198392 47.06621004566208 148.19133024726273 47.11643835616437 148.27145719254156 47.22945205479452 C148.3649386287001 47.34246575342466 148.43171108309915 47.46803652968036 148.4984835374982 47.59360730593607 C148.56525599189712 47.73173515981734 148.5919649736568 47.81963470319634 148.5919649736568 47.882420091324185 C148.5919649736568 47.95776255707761 148.53854701013768 48.03310502283103 148.45842006485879 48.13356164383562 C148.3649386287001 48.2214611872146 148.2313937199021 48.30936073059361 148.07113982934442 48.3972602739726 C147.87082246614742 48.497716894977174 147.63044163031108 48.598173515981735 147.33664283095544 48.68607305936072 C147.04284403159977 48.77397260273971 146.7223362504844 48.849315068493134 146.3617649967297 48.912100456621005 C146.00119374297512 48.97488584474885 145.61391350746078 48.99999999999998 145.19992429018697 48.99999999999998 C145.19992429018697 48.99999999999998 145.19992429018697 48.987442922374434 145.19992429018697 48.987442922374434 Z" vector-effect="non-scaling-stroke"/></g><g><defs><path id="path-172474731337858" d="M156.1674163484078 48.633561643835606 C155.72671814937425 48.633561643835606 155.5130462952975 48.520547945205465 155.5130462952975 48.2945205479452 C155.5130462952975 48.2945205479452 155.5130462952975 38.098173515981735 155.5130462952975 38.098173515981735 C155.5130462952975 37.872146118721446 155.72671814937425 37.75913242009131 156.1674163484078 37.75913242009131 C156.1674163484078 37.75913242009131 156.30096125720584 37.75913242009131 156.30096125720584 37.75913242009131 C156.7416594562392 37.75913242009131 156.9553313103161 37.872146118721446 156.9553313103161 38.098173515981735 C156.9553313103161 38.098173515981735 156.9553313103161 42.46803652968034 156.9553313103161 42.46803652968034 C156.9553313103161 42.46803652968034 162.89807975182802 42.46803652968034 162.89807975182802 42.46803652968034 C162.89807975182802 42.46803652968034 162.89807975182802 38.09817351598171 162.89807975182802 38.09817351598171 C162.89807975182802 37.872146118721446 163.1117516059049 37.759132420091305 163.55244980493833 37.759132420091305 C163.55244980493833 37.759132420091305 163.6859947137364 37.759132420091305 163.6859947137364 37.759132420091305 C164.12669291276998 37.759132420091305 164.3403647668468 37.872146118721446 164.3403647668468 38.09817351598171 C164.3403647668468 38.09817351598171 164.3403647668468 48.2945205479452 164.3403647668468 48.2945205479452 C164.3403647668468 48.520547945205465 164.12669291276998 48.633561643835606 163.6859947137364 48.633561643835606 C163.6859947137364 48.633561643835606 163.55244980493833 48.633561643835606 163.55244980493833 48.633561643835606 C163.1117516059049 48.633561643835606 162.89807975182802 48.520547945205465 162.89807975182802 48.2945205479452 C162.89807975182802 48.2945205479452 162.89807975182802 43.648401826484005 162.89807975182802 43.648401826484005 C162.89807975182802 43.648401826484005 156.9553313103161 43.648401826484005 156.9553313103161 43.648401826484005 C156.9553313103161 43.648401826484005 156.9553313103161 48.2945205479452 156.9553313103161 48.2945205479452 C156.9553313103161 48.520547945205465 156.7416594562392 48.633561643835606 156.30096125720584 48.633561643835606 C156.30096125720584 48.633561643835606 156.1674163484078 48.633561643835606 156.1674163484078 48.633561643835606 Z" vector-effect="non-scaling-stroke"/></defs> <path style="stroke-width: 0; stroke-linecap: butt; stroke-linejoin: miter; fill: rgb(255, 255, 255);" d="M152.06413260240532 48.92465753424658 C151.62343440337176 48.92465753424658 151.409762549295 48.81164383561644 151.409762549295 48.58561643835617 C151.409762549295 48.58561643835617 151.409762549295 38.38926940639271 151.409762549295 38.38926940639271 C151.409762549295 38.16324200913242 151.62343440337176 38.050228310502284 152.06413260240532 38.050228310502284 C152.06413260240532 38.050228310502284 152.19767751120335 38.050228310502284 152.19767751120335 38.050228310502284 C152.63837571023672 38.050228310502284 152.8520475643136 38.16324200913242 152.8520475643136 38.38926940639271 C152.8520475643136 38.38926940639271 152.8520475643136 42.75913242009131 152.8520475643136 42.75913242009131 C152.8520475643136 42.75913242009131 158.79479600582553 42.75913242009131 158.79479600582553 42.75913242009131 C158.79479600582553 42.75913242009131 158.79479600582553 38.389269406392685 158.79479600582553 38.389269406392685 C158.79479600582553 38.16324200913242 159.00846785990242 38.05022831050228 159.44916605893584 38.05022831050228 C159.44916605893584 38.05022831050228 159.5827109677339 38.05022831050228 159.5827109677339 38.05022831050228 C160.0234091667675 38.05022831050228 160.2370810208443 38.16324200913242 160.2370810208443 38.389269406392685 C160.2370810208443 38.389269406392685 160.2370810208443 48.58561643835617 160.2370810208443 48.58561643835617 C160.2370810208443 48.81164383561644 160.0234091667675 48.92465753424658 159.5827109677339 48.92465753424658 C159.5827109677339 48.92465753424658 159.44916605893584 48.92465753424658 159.44916605893584 48.92465753424658 C159.00846785990242 48.92465753424658 158.79479600582553 48.81164383561644 158.79479600582553 48.58561643835617 C158.79479600582553 48.58561643835617 158.79479600582553 43.93949771689498 158.79479600582553 43.93949771689498 C158.79479600582553 43.93949771689498 152.8520475643136 43.93949771689498 152.8520475643136 43.93949771689498 C152.8520475643136 43.93949771689498 152.8520475643136 48.58561643835617 152.8520475643136 48.58561643835617 C152.8520475643136 48.81164383561644 152.63837571023672 48.92465753424658 152.19767751120335 48.92465753424658 C152.19767751120335 48.92465753424658 152.06413260240532 48.92465753424658 152.06413260240532 48.92465753424658 Z" vector-effect="non-scaling-stroke"/></g><g><defs><path id="path-172474731337756" d="M0.65437,10.83676c-0.4407,0 -0.65437,-0.11301 -0.65437,-0.33904v-10.03311c0,-0.31393 0.16025,-0.46461 0.49412,-0.46461h2.76438c1.28203,0 2.25691,0.21347 2.93799,0.62785c0.68108,0.42694 1.01494,1.11758 1.01494,2.09703c0,0.65297 -0.17361,1.20548 -0.50747,1.63242c-0.33386,0.42694 -0.80127,0.75342 -1.37551,0.96689v0.06279c0.34722,0.10046 0.62766,0.32648 0.84133,0.65297c0.21367,0.32648 0.42734,0.75342 0.62766,1.26826l1.28203,3.03881c0.02671,0.0879 0.05342,0.16324 0.05342,0.21347c0,0.16324 -0.22703,0.25114 -0.69443,0.25114h-0.16025c-0.16025,0 -0.30715,-0.02511 -0.42734,-0.07534c-0.12019,-0.05023 -0.20032,-0.10046 -0.22703,-0.1758l-1.24197,-3.02626c-0.24038,-0.60274 -0.54753,-1.00457 -0.92146,-1.20548c-0.37393,-0.20091 -0.8814,-0.30137 -1.52241,-0.30137h-1.48235v4.44521c0,0.22603 -0.21367,0.33904 -0.65437,0.33904h-0.13354zM1.44229,4.87215h2.16343c0.38728,0 0.74785,-0.0879 1.06836,-0.2637c0.32051,-0.1758 0.57424,-0.40183 0.76121,-0.69064c0.18696,-0.28881 0.28044,-0.60274 0.28044,-0.94178c0,-0.62785 -0.20032,-1.07991 -0.61431,-1.36872c-0.40063,-0.28881 -0.94817,-0.42694 -1.61589,-0.42694h-2.05659v3.70434z" vector-effect="non-scaling-stroke"/></defs><path style="stroke-width: 0; stroke-linecap: butt; stroke-linejoin: miter; fill: rgb(255, 255, 255);" d="M0.65437,10.83676c-0.4407,0 -0.65437,-0.11301 -0.65437,-0.33904v-10.03311c0,-0.31393 0.16025,-0.46461 0.49412,-0.46461h2.76438c1.28203,0 2.25691,0.21347 2.93799,0.62785c0.68108,0.42694 1.01494,1.11758 1.01494,2.09703c0,0.65297 -0.17361,1.20548 -0.50747,1.63242c-0.33386,0.42694 -0.80127,0.75342 -1.37551,0.96689v0.06279c0.34722,0.10046 0.62766,0.32648 0.84133,0.65297c0.21367,0.32648 0.42734,0.75342 0.62766,1.26826l1.28203,3.03881c0.02671,0.0879 0.05342,0.16324 0.05342,0.21347c0,0.16324 -0.22703,0.25114 -0.69443,0.25114h-0.16025c-0.16025,0 -0.30715,-0.02511 -0.42734,-0.07534c-0.12019,-0.05023 -0.20032,-0.10046 -0.22703,-0.1758l-1.24197,-3.02626c-0.24038,-0.60274 -0.54753,-1.00457 -0.92146,-1.20548c-0.37393,-0.20091 -0.8814,-0.30137 -1.52241,-0.30137h-1.48235v4.44521c0,0.22603 -0.21367,0.33904 -0.65437,0.33904h-0.13354zM1.44229,4.87215h2.16343c0.38728,0 0.74785,-0.0879 1.06836,-0.2637c0.32051,-0.1758 0.57424,-0.40183 0.76121,-0.69064c0.18696,-0.28881 0.28044,-0.60274 0.28044,-0.94178c0,-0.62785 -0.20032,-1.07991 -0.61431,-1.36872c-0.40063,-0.28881 -0.94817,-0.42694 -1.61589,-0.42694h-2.05659v3.70434z" transform="translate(168.6771192568794, 38.08789954337899) rotate(0)" vector-effect="non-scaling-stroke"/></g><g><defs><path id="path-172474731337754" d="M0.70779,10.87443c-0.46741,0 -0.70779,-0.0879 -0.70779,-0.2637c0,-0.02511 0,-0.06279 0.01335,-0.10046c0,-0.03767 0.02671,-0.07534 0.02671,-0.11301l3.88616,-10.14612c0.05342,-0.16324 0.28044,-0.25114 0.65437,-0.25114h0.48076c0.38728,0 0.60095,0.0879 0.65437,0.25114l3.88616,10.15868c0.04006,0.07534 0.05342,0.13813 0.05342,0.20091c0,0.1758 -0.24038,0.2637 -0.70779,0.2637h-0.13354c-0.16025,0 -0.30715,-0.01256 -0.42734,-0.05023c-0.12019,-0.03767 -0.20032,-0.10046 -0.22703,-0.18836l-0.97488,-2.53653h-4.83433l-0.93481,2.53653c-0.02671,0.0879 -0.10684,0.16324 -0.22703,0.18836c-0.12019,0.02511 -0.26709,0.05023 -0.42734,0.05023h-0.08013zM2.84451,6.91895h3.92622l-1.72273,-4.59589c-0.04006,-0.15068 -0.08013,-0.28881 -0.12019,-0.45205c-0.04006,-0.16324 -0.05342,-0.30137 -0.08013,-0.45205h-0.02671c-0.02671,0.15068 -0.06677,0.28881 -0.10684,0.45205c-0.04006,0.16324 -0.08013,0.30137 -0.13354,0.45205l-1.72273,4.59589z" vector-effect="non-scaling-stroke"/></defs><path style="stroke-width: 0; stroke-linecap: butt; stroke-linejoin: miter; fill: rgb(255, 255, 255);" d="M0.70779,10.87443c-0.46741,0 -0.70779,-0.0879 -0.70779,-0.2637c0,-0.02511 0,-0.06279 0.01335,-0.10046c0,-0.03767 0.02671,-0.07534 0.02671,-0.11301l3.88616,-10.14612c0.05342,-0.16324 0.28044,-0.25114 0.65437,-0.25114h0.48076c0.38728,0 0.60095,0.0879 0.65437,0.25114l3.88616,10.15868c0.04006,0.07534 0.05342,0.13813 0.05342,0.20091c0,0.1758 -0.24038,0.2637 -0.70779,0.2637h-0.13354c-0.16025,0 -0.30715,-0.01256 -0.42734,-0.05023c-0.12019,-0.03767 -0.20032,-0.10046 -0.22703,-0.18836l-0.97488,-2.53653h-4.83433l-0.93481,2.53653c-0.02671,0.0879 -0.10684,0.16324 -0.22703,0.18836c-0.12019,0.02511 -0.26709,0.05023 -0.42734,0.05023h-0.08013zM2.84451,6.91895h3.92622l-1.72273,-4.59589c-0.04006,-0.15068 -0.08013,-0.28881 -0.12019,-0.45205c-0.04006,-0.16324 -0.05342,-0.30137 -0.08013,-0.45205h-0.02671c-0.02671,0.15068 -0.06677,0.28881 -0.10684,0.45205c-0.04006,0.16324 -0.08013,0.30137 -0.13354,0.45205l-1.72273,4.59589z" transform="translate(177.95849041834202, 38.05022831050228) rotate(0)" vector-effect="non-scaling-stroke"/></g><g><defs><path id="path-172474731337652" d="M0.49412,10.81164c-0.33386,0 -0.49412,-0.15068 -0.49412,-0.46461v-9.88242c0,-0.31393 0.16025,-0.46461 0.49412,-0.46461h3.31191c0.93481,0 1.7895,0.1758 2.56406,0.51484c0.76121,0.33904 1.37551,0.91667 1.82957,1.69521c0.45405,0.77854 0.68108,1.84589 0.68108,3.1895c0,1.00457 -0.13354,1.84589 -0.40063,2.53653c-0.26709,0.69064 -0.62766,1.25571 -1.08171,1.67009c-0.45405,0.41438 -1.00159,0.71575 -1.61589,0.91667c-0.61431,0.20091 -1.28203,0.28881 -1.98982,0.28881h-3.31191zM1.45564,9.63128h2.24355c0.69443,0 1.30874,-0.13813 1.86963,-0.41438c0.56089,-0.27626 1.00159,-0.72831 1.33545,-1.34361c0.33386,-0.6153 0.49412,-1.44406 0.49412,-2.47374c0,-1.02968 -0.16025,-1.85845 -0.49412,-2.47374c-0.33386,-0.6153 -0.77456,-1.06735 -1.33545,-1.34361c-0.56089,-0.27626 -1.18855,-0.41438 -1.86963,-0.41438h-2.24355z" vector-effect="non-scaling-stroke"/></defs><path style="stroke-width: 0; stroke-linecap: butt; stroke-linejoin: miter; fill: rgb(255, 255, 255);" d="M0.49412,10.81164c-0.33386,0 -0.49412,-0.15068 -0.49412,-0.46461v-9.88242c0,-0.31393 0.16025,-0.46461 0.49412,-0.46461h3.31191c0.93481,0 1.7895,0.1758 2.56406,0.51484c0.76121,0.33904 1.37551,0.91667 1.82957,1.69521c0.45405,0.77854 0.68108,1.84589 0.68108,3.1895c0,1.00457 -0.13354,1.84589 -0.40063,2.53653c-0.26709,0.69064 -0.62766,1.25571 -1.08171,1.67009c-0.45405,0.41438 -1.00159,0.71575 -1.61589,0.91667c-0.61431,0.20091 -1.28203,0.28881 -1.98982,0.28881h-3.31191zM1.45564,9.63128h2.24355c0.69443,0 1.30874,-0.13813 1.86963,-0.41438c0.56089,-0.27626 1.00159,-0.72831 1.33545,-1.34361c0.33386,-0.6153 0.49412,-1.44406 0.49412,-2.47374c0,-1.02968 -0.16025,-1.85845 -0.49412,-2.47374c-0.33386,-0.6153 -0.77456,-1.06735 -1.33545,-1.34361c-0.56089,-0.27626 -1.18855,-0.41438 -1.86963,-0.41438h-2.24355z" transform="translate(190.07101364632274, 38.08789954337899) rotate(0)" vector-effect="non-scaling-stroke"/></g><g><defs><path id="path-172474731337650" d="M0.70779,10.87443c-0.46741,0 -0.70779,-0.0879 -0.70779,-0.2637c0,-0.02511 0,-0.06279 0.01335,-0.10046c0,-0.03767 0.02671,-0.07534 0.04006,-0.11301l3.88616,-10.14612c0.05342,-0.16324 0.28044,-0.25114 0.65437,-0.25114h0.48076c0.38728,0 0.60095,0.0879 0.65437,0.25114l3.88616,10.15868c0.02671,0.07534 0.05342,0.13813 0.05342,0.20091c0,0.1758 -0.24038,0.2637 -0.70779,0.2637h-0.13354c-0.16025,0 -0.30715,-0.01256 -0.42734,-0.05023c-0.12019,-0.03767 -0.20032,-0.10046 -0.22703,-0.18836l-0.97488,-2.53653h-4.83433l-0.93481,2.53653c-0.02671,0.0879 -0.10684,0.16324 -0.22703,0.18836c-0.12019,0.03767 -0.26709,0.05023 -0.42734,0.05023h-0.08013zM2.84451,6.91895h3.92622l-1.72273,-4.59589c-0.04006,-0.15068 -0.08013,-0.28881 -0.12019,-0.45205c-0.04006,-0.15068 -0.06677,-0.30137 -0.08013,-0.45205h-0.04006c-0.02671,0.15068 -0.06677,0.28881 -0.10684,0.45205c-0.04006,0.15068 -0.08013,0.30137 -0.1469,0.45205l-1.72273,4.59589z" vector-effect="non-scaling-stroke"/></defs><path style="stroke-width: 0; stroke-linecap: butt; stroke-linejoin: miter; fill: rgb(255, 255, 255);" d="M0.70779,10.87443c-0.46741,0 -0.70779,-0.0879 -0.70779,-0.2637c0,-0.02511 0,-0.06279 0.01335,-0.10046c0,-0.03767 0.02671,-0.07534 0.04006,-0.11301l3.88616,-10.14612c0.05342,-0.16324 0.28044,-0.25114 0.65437,-0.25114h0.48076c0.38728,0 0.60095,0.0879 0.65437,0.25114l3.88616,10.15868c0.02671,0.07534 0.05342,0.13813 0.05342,0.20091c0,0.1758 -0.24038,0.2637 -0.70779,0.2637h-0.13354c-0.16025,0 -0.30715,-0.01256 -0.42734,-0.05023c-0.12019,-0.03767 -0.20032,-0.10046 -0.22703,-0.18836l-0.97488,-2.53653h-4.83433l-0.93481,2.53653c-0.02671,0.0879 -0.10684,0.16324 -0.22703,0.18836c-0.12019,0.03767 -0.26709,0.05023 -0.42734,0.05023h-0.08013zM2.84451,6.91895h3.92622l-1.72273,-4.59589c-0.04006,-0.15068 -0.08013,-0.28881 -0.12019,-0.45205c-0.04006,-0.15068 -0.06677,-0.30137 -0.08013,-0.45205h-0.04006c-0.02671,0.15068 -0.06677,0.28881 -0.10684,0.45205c-0.04006,0.15068 -0.08013,0.30137 -0.1469,0.45205l-1.72273,4.59589z" transform="translate(200.74125185928477, 38.05022831050228) rotate(0)" vector-effect="non-scaling-stroke"/></g><g><defs><path id="path-172474731337448" d="M0.65437,10.83676c-0.4407,0 -0.65437,-0.11301 -0.65437,-0.33904v-10.03311c0,-0.31393 0.16025,-0.46461 0.49412,-0.46461h2.76438c1.28203,0 2.25691,0.21347 2.93799,0.62785c0.68108,0.42694 1.01494,1.11758 1.01494,2.09703c0,0.65297 -0.17361,1.20548 -0.50747,1.63242c-0.33386,0.42694 -0.80127,0.75342 -1.37551,0.96689v0.06279c0.34722,0.10046 0.62766,0.32648 0.84133,0.65297c0.21367,0.33904 0.42734,0.75342 0.62766,1.26826l1.28203,3.03881c0.02671,0.0879 0.05342,0.16324 0.05342,0.21347c0,0.16324 -0.22703,0.25114 -0.69443,0.25114h-0.16025c-0.16025,0 -0.30715,-0.02511 -0.42734,-0.07534c-0.12019,-0.05023 -0.20032,-0.10046 -0.22703,-0.1758l-1.24197,-3.02626c-0.24038,-0.60274 -0.54753,-1.00457 -0.92146,-1.20548c-0.37393,-0.20091 -0.8814,-0.30137 -1.52241,-0.30137h-1.48235v4.44521c0,0.22603 -0.21367,0.33904 -0.65437,0.33904h-0.13354zM1.44229,4.87215h2.16343c0.40063,0 0.74785,-0.0879 1.06836,-0.2637c0.32051,-0.1758 0.57424,-0.40183 0.76121,-0.69064c0.18696,-0.28881 0.28044,-0.60274 0.28044,-0.94178c0,-0.62785 -0.20032,-1.07991 -0.61431,-1.36872c-0.40063,-0.28881 -0.94817,-0.42694 -1.61589,-0.42694h-2.05659v3.70434z" vector-effect="non-scaling-stroke"/></defs><path style="stroke-width: 0; stroke-linecap: butt; stroke-linejoin: miter; fill: rgb(255, 255, 255);" d="M0.65437,10.83676c-0.4407,0 -0.65437,-0.11301 -0.65437,-0.33904v-10.03311c0,-0.31393 0.16025,-0.46461 0.49412,-0.46461h2.76438c1.28203,0 2.25691,0.21347 2.93799,0.62785c0.68108,0.42694 1.01494,1.11758 1.01494,2.09703c0,0.65297 -0.17361,1.20548 -0.50747,1.63242c-0.33386,0.42694 -0.80127,0.75342 -1.37551,0.96689v0.06279c0.34722,0.10046 0.62766,0.32648 0.84133,0.65297c0.21367,0.33904 0.42734,0.75342 0.62766,1.26826l1.28203,3.03881c0.02671,0.0879 0.05342,0.16324 0.05342,0.21347c0,0.16324 -0.22703,0.25114 -0.69443,0.25114h-0.16025c-0.16025,0 -0.30715,-0.02511 -0.42734,-0.07534c-0.12019,-0.05023 -0.20032,-0.10046 -0.22703,-0.1758l-1.24197,-3.02626c-0.24038,-0.60274 -0.54753,-1.00457 -0.92146,-1.20548c-0.37393,-0.20091 -0.8814,-0.30137 -1.52241,-0.30137h-1.48235v4.44521c0,0.22603 -0.21367,0.33904 -0.65437,0.33904h-0.13354zM1.44229,4.87215h2.16343c0.40063,0 0.74785,-0.0879 1.06836,-0.2637c0.32051,-0.1758 0.57424,-0.40183 0.76121,-0.69064c0.18696,-0.28881 0.28044,-0.60274 0.28044,-0.94178c0,-0.62785 -0.20032,-1.07991 -0.61431,-1.36872c-0.40063,-0.28881 -0.94817,-0.42694 -1.61589,-0.42694h-2.05659v3.70434z" transform="translate(212.86712957814527, 38.08789954337899) rotate(0)" vector-effect="non-scaling-stroke"/></g></svg>